<svg width="18" height="16" viewBox="0 0 18 16" fill="none" xmlns="http://www.w3.org/2000/svg">
<path d="M17.3082 14.5919C16.2554 12.7442 14.6114 11.3045 12.641 10.5045C13.6209 9.76962 14.3447 8.74504 14.7099 7.57591C15.0751 6.40678 15.0632 5.15238 14.6759 3.99039C14.2885 2.8284 13.5454 1.81774 12.5518 1.10156C11.5581 0.385384 10.3643 0 9.1395 0C7.91466 0 6.72086 0.385384 5.72722 1.10156C4.73358 1.81774 3.99046 2.8284 3.60313 3.99039C3.2158 5.15238 3.2039 6.40678 3.5691 7.57591C3.93431 8.74504 4.65812 9.76962 5.63799 10.5045C3.66756 11.3045 2.02364 12.7442 0.970848 14.5919C0.905614 14.6968 0.862135 14.8138 0.842997 14.9358C0.82386 15.0578 0.829453 15.1825 0.859446 15.3023C0.889439 15.4221 0.943218 15.5347 1.01759 15.6333C1.09196 15.7319 1.1854 15.8146 1.29235 15.8764C1.39931 15.9382 1.5176 15.9779 1.64019 15.993C1.76278 16.0082 1.88717 15.9986 2.00596 15.9647C2.12475 15.9308 2.23552 15.8734 2.33168 15.7959C2.42784 15.7184 2.50743 15.6223 2.56572 15.5134C3.95711 13.1084 6.41431 11.674 9.1395 11.674C11.8647 11.674 14.3219 13.1092 15.7133 15.5134C15.8396 15.7165 16.04 15.8625 16.272 15.9206C16.5041 15.9787 16.7496 15.9443 16.9567 15.8246C17.1638 15.7049 17.3163 15.5094 17.3819 15.2794C17.4475 15.0493 17.421 14.8028 17.3082 14.5919ZM5.14655 5.83815C5.14655 5.04842 5.38073 4.27643 5.81948 3.61979C6.25823 2.96315 6.88185 2.45136 7.61146 2.14915C8.34108 1.84693 9.14393 1.76786 9.91849 1.92193C10.693 2.076 11.4045 2.45629 11.9629 3.01471C12.5214 3.57313 12.9017 4.28461 13.0557 5.05917C13.2098 5.83372 13.1307 6.63657 12.8285 7.36619C12.5263 8.0958 12.0145 8.71942 11.3579 9.15817C10.7012 9.59692 9.92923 9.8311 9.1395 9.8311C8.08088 9.82988 7.06596 9.4088 6.31741 8.66025C5.56885 7.91169 5.14777 6.89677 5.14655 5.83815Z" fill="#005E4F"/>
</svg>
